<?xml version="1.0" encoding="iso-8859-1"?>
<!-- Generator: Adobe Illustrator 19.0.0, SVG Export Plug-In . SVG Version: 6.00 Build 0)  -->
<svg version="1.1" id="Capa_1" xmlns="http://www.w3.org/2000/svg" xmlns:xlink="http://www.w3.org/1999/xlink" x="0px" y="0px"
	 viewBox="0 0 512 512" style="enable-background:new 0 0 512 512;" xml:space="preserve">
<path style="fill:#D5E3EF;" d="M186.104,174.545v11.636l0,0c6.982,6.982,11.636,17.455,11.636,27.927v75.636
	c0,23.273-6.982,46.545-20.945,66.327L97.668,470.109c-3.491,4.655-4.655,9.309-4.655,15.127l0,0
	c0,15.127,11.636,26.764,26.764,26.764h272.291c15.127,0,26.764-11.636,26.764-26.764l0,0c0-5.818-1.164-10.473-4.655-15.127
	L335.05,356.073c-13.964-19.782-20.945-43.055-20.945-66.327v-75.636c0-10.473,4.655-20.945,11.636-27.927l0,0v-11.636
	L186.104,174.545L186.104,174.545z"/>
<g>
	<circle style="fill:#90C962;" cx="290.831" cy="23.273" r="23.273"/>
	<circle style="fill:#90C962;" cx="209.377" cy="104.727" r="23.273"/>
	<circle style="fill:#90C962;" cx="279.195" cy="139.636" r="23.273"/>
	<circle style="fill:#90C962;" cx="279.195" cy="139.636" r="23.273"/>
</g>
<g>
	<path style="fill:#71B956;" d="M288.504,118.691c1.164,3.491,2.327,5.818,2.327,9.309c0,12.8-10.473,23.273-23.273,23.273
		c-3.491,0-6.982-1.164-9.309-2.327c3.491,8.145,11.636,13.964,20.945,13.964c12.8,0,23.273-10.473,23.273-23.273
		C302.468,130.327,296.65,122.182,288.504,118.691z"/>
	<path style="fill:#71B956;" d="M218.686,83.782c1.164,2.327,2.327,5.818,2.327,9.309c0,12.8-10.473,23.273-23.273,23.273
		c-3.491,0-6.982-1.164-9.309-2.327c3.491,8.145,11.636,13.964,20.945,13.964c12.8,0,23.273-10.473,23.273-23.273
		C232.65,95.418,226.831,87.273,218.686,83.782z"/>
	<path style="fill:#71B956;" d="M300.141,2.327c1.164,2.327,2.327,5.818,2.327,9.309c0,12.8-10.473,23.273-23.273,23.273
		c-3.491,0-6.982-1.164-9.309-2.327c3.491,8.145,11.636,13.964,20.945,13.964c12.8,0,23.273-10.473,23.273-23.273
		C314.104,13.964,308.286,5.818,300.141,2.327z"/>
</g>
<g>
	<circle style="fill:#90C962;" cx="314.104" cy="93.091" r="11.636"/>
	<circle style="fill:#90C962;" cx="255.922" cy="69.818" r="11.636"/>
</g>
<path style="fill:#B0C4D9;" d="M414.177,470.109L335.05,356.073c-13.964-19.782-20.945-43.055-20.945-66.327v-75.636
	c0-10.473,4.655-20.945,11.636-27.927v-11.636h-46.545v11.636h-93.091l0,0c3.491,3.491,5.818,6.982,8.145,11.636h51.2
	c12.8,0,22.109,10.473,22.109,23.273l0,0v68.655c0,23.273,6.982,46.545,20.945,66.327l59.345,114.036
	c3.491,4.655,4.655,9.309,4.655,15.127c0,15.127-11.636,26.764-26.764,26.764h65.164c9.309,0,17.455-4.655,23.273-11.636
	C421.159,491.055,419.995,478.255,414.177,470.109z"/>
<g>
	<path style="fill:#ECF0F9;" d="M203.559,174.545h34.909c3.491,0,5.818,2.327,5.818,5.818l0,0c0,3.491-2.327,5.818-5.818,5.818
		h-34.909c-3.491,0-5.818-2.327-5.818-5.818l0,0C197.741,176.873,200.068,174.545,203.559,174.545z"/>
	<path style="fill:#ECF0F9;" d="M221.013,226.909v69.818c0,3.491-2.327,5.818-5.818,5.818l0,0c-3.491,0-5.818-2.327-5.818-5.818
		v-69.818c0-3.491,2.327-5.818,5.818-5.818l0,0C218.686,221.091,221.013,223.418,221.013,226.909z"/>
	<path style="fill:#ECF0F9;" d="M209.377,320L209.377,320c0-3.491,2.327-5.818,5.818-5.818l0,0c3.491,0,5.818,2.327,5.818,5.818l0,0
		c0,3.491-2.327,5.818-5.818,5.818l0,0C211.704,325.818,209.377,323.491,209.377,320z"/>
</g>
<path style="fill:#90C962;" d="M93.013,485.236c0,15.127,11.636,26.764,26.764,26.764h272.291c6.982,0,13.964-3.491,18.618-8.145
	c4.655-4.655,8.145-11.636,8.145-18.618c0-5.818-1.164-10.473-4.655-15.127l-61.673-89.6C319.922,368.873,274.54,370.036,245.45,384
	c-25.6,11.636-61.673,15.127-91.927,8.145l-54.691,77.964C94.177,474.764,93.013,479.418,93.013,485.236z"/>
<g>
	<circle style="fill:#71B956;" cx="255.922" cy="418.909" r="11.636"/>
	<circle style="fill:#71B956;" cx="191.922" cy="424.727" r="5.818"/>
	<circle style="fill:#71B956;" cx="151.195" cy="442.182" r="11.636"/>
	<circle style="fill:#71B956;" cx="209.377" cy="477.091" r="11.636"/>
	<circle style="fill:#71B956;" cx="250.104" cy="459.636" r="5.818"/>
	<circle style="fill:#71B956;" cx="296.65" cy="436.364" r="5.818"/>
	<circle style="fill:#71B956;" cx="168.65" cy="471.273" r="5.818"/>
	<circle style="fill:#71B956;" cx="314.104" cy="477.091" r="11.636"/>
	<path style="fill:#71B956;" d="M153.522,389.818c6.982-10.473,19.782-17.455,32.582-17.455l0,0
		c20.945,0,41.891,3.491,58.182,11.636c-16.291,8.145-37.236,11.636-58.182,11.636c-11.636,0-23.273-1.164-33.745-3.491
		L153.522,389.818z"/>
	<path style="fill:#71B956;" d="M414.177,470.109l-61.673-89.6c-16.291-5.818-36.073-8.145-54.691-8.145l51.2,97.745
		c0,1.164,1.164,2.327,1.164,3.491c3.491,13.964-8.145,26.764-22.109,26.764h-230.4c4.655,6.982,12.8,11.636,22.109,11.636h205.964
		h34.909h31.418c6.982,0,13.964-3.491,18.618-8.145c4.655-4.655,8.145-11.636,8.145-18.618
		C418.831,479.418,417.668,474.764,414.177,470.109z"/>
</g>
<g>
</g>
<g>
</g>
<g>
</g>
<g>
</g>
<g>
</g>
<g>
</g>
<g>
</g>
<g>
</g>
<g>
</g>
<g>
</g>
<g>
</g>
<g>
</g>
<g>
</g>
<g>
</g>
<g>
</g>
</svg>
