<?xml version="1.0" encoding="iso-8859-1"?>
<!-- Generator: Adobe Illustrator 19.0.0, SVG Export Plug-In . SVG Version: 6.00 Build 0)  -->
<svg version="1.1" id="Layer_1" xmlns="http://www.w3.org/2000/svg" xmlns:xlink="http://www.w3.org/1999/xlink" x="0px" y="0px"
	 viewBox="0 0 512.003 512.003" style="enable-background:new 0 0 512.003 512.003;" xml:space="preserve">
<path style="fill:#EDEEF0;" d="M364.843,512.003H147.16c-5.555,0-11.066-1.128-16.134-3.4
	c-33.953-15.226-48.77-48.646-40.398-79.891l62.768-234.29L104.643,75.913h302.716L358.607,194.42l62.768,234.29
	c8.371,31.245-6.445,64.666-40.398,79.891C375.908,510.875,370.397,512.003,364.843,512.003z"/>
<path style="fill:#DCDEE2;" d="M421.375,428.71l-62.768-234.29l48.752-118.507H256.001v436.09h108.841
	c5.555,0,11.067-1.128,16.136-3.401C414.931,493.375,429.745,459.956,421.375,428.71z"/>
<path style="fill:#FFAC12;" d="M349.929,291.141H162.074l-39.173,146.215c-2.657,9.917-0.597,20.274,5.652,28.419
	c6.25,8.145,15.722,12.816,25.989,12.816H357.46c10.266,0,19.738-4.671,25.989-12.816c6.249-8.145,8.309-18.502,5.652-28.418
	L349.929,291.141z"/>
<path style="fill:#D89210;" d="M389.101,437.357l-39.172-146.216h-93.928v187.45h101.46c10.266,0,19.738-4.671,25.989-12.816
	C389.698,457.631,391.758,447.273,389.101,437.357z"/>
<g>
	<circle style="fill:#FFFFFF;" cx="256.169" cy="361.129" r="26.505"/>
	<circle style="fill:#FFFFFF;" cx="176.639" cy="409.969" r="18.743"/>
</g>
<g>
	<circle style="fill:#EDEEF0;" cx="331.379" cy="440.099" r="18.743"/>
	<path style="fill:#EDEEF0;" d="M282.675,361.129c0,14.639-11.867,26.505-26.505,26.505c0-15.134,0-26.505,0-53.012
		C270.807,334.623,282.675,346.49,282.675,361.129z"/>
</g>
<rect x="245.517" y="-6.05" transform="matrix(-0.9416 -0.3368 0.3368 -0.9416 443.8476 464.6393)" style="fill:#B7B9C0;" width="33.412" height="399.749"/>
<polygon style="fill:#D89210;" points="179.179,376.38 210.638,387.634 245.156,291.141 209.673,291.141 "/>
<g>
</g>
<g>
</g>
<g>
</g>
<g>
</g>
<g>
</g>
<g>
</g>
<g>
</g>
<g>
</g>
<g>
</g>
<g>
</g>
<g>
</g>
<g>
</g>
<g>
</g>
<g>
</g>
<g>
</g>
</svg>
