<?xml version="1.0" encoding="iso-8859-1"?>
<!-- Generator: Adobe Illustrator 19.0.0, SVG Export Plug-In . SVG Version: 6.00 Build 0)  -->
<svg version="1.1" id="Capa_1" xmlns="http://www.w3.org/2000/svg" xmlns:xlink="http://www.w3.org/1999/xlink" x="0px" y="0px"
	 viewBox="0 0 512 512" style="enable-background:new 0 0 512 512;" xml:space="preserve">
<path style="fill:#FEDB41;" d="M479.299,298.7l-181,180.899C286.601,491.3,271.3,497,256,497s-30.601-5.7-42.299-17.401
	L32.551,298.7c-23.401-23.4-23.401-61.501,0-84.9l181.15-181.099C225.399,21,240.7,15,256,15s30.601,6,42.299,17.701l181,181.099
	C502.7,237.199,502.7,275.3,479.299,298.7z"/>
<path style="fill:#FCBF29;" d="M479.299,298.7l-181,180.899C286.601,491.3,271.3,497,256,497V15c15.3,0,30.601,6,42.299,17.701
	l181,181.099C502.7,237.199,502.7,275.3,479.299,298.7z"/>
<path style="fill:#57555C;" d="M329.2,353.899c-0.3-0.3-0.601-0.899-0.901-1.5L283.9,275.6c-2.699-4.801-7.5-7.5-12.9-7.5h-30
	c-5.4,0-10.201,2.699-12.9,7.5l-45.3,77.999c-3.9,7.2-1.5,16.201,5.7,20.4C208.9,385.699,232.301,392,256,392
	s47.1-6.301,67.5-18.001C330.7,369.8,333.1,360.799,329.2,353.899z"/>
<path style="fill:#3C3A41;" d="M376,272h-90c-5.361,0-10.313-2.856-12.979-7.5l-15-25.986c-2.695-4.644-2.695-10.356,0-15l45-77.959
	c1.992-3.442,5.244-5.962,9.111-6.987c3.809-1.055,7.969-0.483,11.367,1.509C365.131,164.173,391,208.968,391,257
	C391,265.291,384.291,272,376,272z"/>
<path style="fill:#57555C;" d="M253.979,223.514l-45-77.959c-1.992-3.442-5.244-5.962-9.111-6.987
	c-3.809-1.055-7.969-0.483-11.367,1.509C146.869,164.173,121,208.968,121,257c0,8.291,6.709,15,15,15h90
	c4.757,0,9.476-2.788,12.149-6.676c0.229-0.333,0.624-0.467,0.829-0.824l15-25.986C256.433,234.273,256.311,227.544,253.979,223.514
	z"/>
<path style="fill:#FD4E26;" d="M489.8,203.299L309.1,22.202C294.401,7.5,275.2,0,256,0s-38.401,7.5-53.101,22.202L22.05,203.299
	c-29.399,29.101-29.399,76.8,0,105.901L202.9,490.101C217.599,504.8,236.8,512,256,512c19.2,0,38.401-7.2,53.101-21.899L489.8,309.2
	c14.7-14.399,22.2-33.6,22.2-52.8S504.5,218,489.8,203.299z M468.5,288.199L287.8,469.1c-8.699,8.7-20.4,12.9-31.8,12.9
	c-11.4,0-23.101-4.2-31.8-12.9L43.35,288.199c-17.699-17.699-17.699-46.199,0-63.9L224.2,43.2C232.899,34.501,244.6,30,256,30
	c11.4,0,23.101,4.501,31.8,13.2l182.1,181.099c8.699,8.701,11.8,19.801,11.8,32.1C481.7,268.4,477.199,279.5,468.5,288.199z"/>
<path style="fill:#3C3A41;" d="M323.5,373.999C303.1,385.699,279.699,392,256,392V268.1h15c5.4,0,10.201,2.699,12.9,7.5l44.399,76.8
	c0.3,0.601,0.601,1.199,0.901,1.5C333.1,360.799,330.7,369.8,323.5,373.999z"/>
<path style="fill:#FD3018;" d="M512,256.399c0,19.2-7.5,38.401-22.2,52.8L309.1,490.1C294.401,504.8,275.2,512,256,512v-30
	c11.4,0,23.101-4.2,31.8-12.9l180.7-180.901c8.699-8.699,13.2-19.799,13.2-31.8c0-12.299-3.1-23.399-11.8-32.1L287.8,43.2
	C279.101,34.501,267.4,30,256,30V0c19.2,0,38.401,7.5,53.101,22.202l180.7,181.097C504.5,218,512,237.199,512,256.399z"/>
<path style="fill:#FEDB41;" d="M256,212c-24.901,0-45,20.099-45,45c0,24.899,20.099,45,45,45s45-20.101,45-45
	C301,232.099,280.901,212,256,212z"/>
<path style="fill:#FCBF29;" d="M301,257c0,24.899-20.099,45-45,45v-90C280.901,212,301,232.099,301,257z"/>
<path style="fill:#57555C;" d="M256,272c-8.271,0-15-6.729-15-15s6.729-15,15-15c8.271,0,15,6.729,15,15S264.271,272,256,272z"/>
<path style="fill:#3C3A41;" d="M271,257c0-8.271-6.729-15-15-15v30C264.271,272,271,265.271,271,257z"/>
<g>
</g>
<g>
</g>
<g>
</g>
<g>
</g>
<g>
</g>
<g>
</g>
<g>
</g>
<g>
</g>
<g>
</g>
<g>
</g>
<g>
</g>
<g>
</g>
<g>
</g>
<g>
</g>
<g>
</g>
</svg>
